<svg xmlns="http://www.w3.org/2000/svg" xmlns:xlink="http://www.w3.org/1999/xlink" viewBox="0,0,256,256" width="24px" height="24px"><g fill="#000000" fill-rule="nonzero" stroke="none" stroke-width="1" stroke-linecap="butt" stroke-linejoin="miter" stroke-miterlimit="10" stroke-dasharray="" stroke-dashoffset="0" font-family="none" font-weight="none" font-size="none" text-anchor="none" style="mix-blend-mode: normal"><g transform="scale(10.66667,10.66667)"><path d="M18,19v-13c0,-1.657 -1.343,-3 -3,-3h-10c-1.657,0 -3,1.343 -3,3v12c0,1.657 1.343,3 3,3h15c-1.105,0 -2,-0.895 -2,-2z" opacity="0.35"></path><path d="M14,14h-8c-0.552,0 -1,-0.448 -1,-1v0c0,-0.552 0.448,-1 1,-1h8c0.552,0 1,0.448 1,1v0c0,0.552 -0.448,1 -1,1z"></path><path d="M14,18h-8c-0.552,0 -1,-0.448 -1,-1v0c0,-0.552 0.448,-1 1,-1h8c0.552,0 1,0.448 1,1v0c0,0.552 -0.448,1 -1,1z"></path><path d="M20,7h-2v12c0,1.105 0.895,2 2,2v0c1.105,0 2,-0.895 2,-2v-10c0,-1.105 -0.895,-2 -2,-2z"></path><path d="M13.5,7c-0.386,0 -6.614,0 -7,0c-0.828,0 -1.5,0.672 -1.5,1.5c0,0.828 0.672,1.5 1.5,1.5c0.386,0 6.614,0 7,0c0.828,0 1.5,-0.672 1.5,-1.5c0,-0.828 -0.672,-1.5 -1.5,-1.5z"></path></g></g></svg>