<svg width="21" height="20" viewBox="0 0 21 20" fill="none" xmlns="http://www.w3.org/2000/svg">
<path fill-rule="evenodd" clip-rule="evenodd" d="M10.0837 2.29175C6.05658 2.29175 2.79199 5.55634 2.79199 9.58342C2.79199 13.6105 6.05658 16.8751 10.0837 16.8751C14.1107 16.8751 17.3753 13.6105 17.3753 9.58342C17.3753 5.55634 14.1107 2.29175 10.0837 2.29175ZM1.54199 9.58342C1.54199 4.86598 5.36623 1.04175 10.0837 1.04175C14.8011 1.04175 18.6253 4.86598 18.6253 9.58342C18.6253 14.3008 14.8011 18.1251 10.0837 18.1251C5.36623 18.1251 1.54199 14.3008 1.54199 9.58342ZM16.7251 16.2248C16.9691 15.9807 17.3649 15.9807 17.6089 16.2248L19.2756 17.8915C19.5197 18.1356 19.5197 18.5313 19.2756 18.7754C19.0315 19.0194 18.6358 19.0194 18.3917 18.7754L16.7251 17.1087C16.481 16.8646 16.481 16.4689 16.7251 16.2248Z" fill="#464646"/>
</svg>
